<svg xmlns="http://www.w3.org/2000/svg" viewBox="0 0 403.8 325.45"><defs><style>.cls-1{stroke:#000;stroke-miterlimit:10;}</style></defs><title>Asset 1</title><g id="Layer_2" data-name="Layer 2"><g id="Layer_1_copy" data-name="Layer 1 copy"><path class="cls-1" d="M202.9,161.5a138.62,138.62,0,0,0,21-2,142.91,142.91,0,0,0,20-5,140.61,140.61,0,0,0,47-27c6.76-6,16.33-14.62,24-29,4.86-9.12,9.21-17.27,8-28-1.62-14.42-12.16-23.64-16-27-6.7-5.87-12.95-8.26-23-12-6-2.25-17.53-6.1-37-9a280.14,280.14,0,0,0-45-3l-11-19h212l-200,324L.9.5h102Z"/></g></g></svg>