<svg xmlns="http://www.w3.org/2000/svg" viewBox="0 0 1856 403"><defs><style>.cls-1{fill:#fff;}</style></defs><title>Asset 1</title><g id="Layer_2" data-name="Layer 2"><g id="Layer_1-2" data-name="Layer 1"><polygon class="cls-1" points="1798 0 1740 118 1682 0 1624 118 1566 0 1508 118 1450 0 1392 118 1334 0 1276 118 1218 0 1160 118 1102 0 1044 118 986 0 928 118 870 0 812 118 754 0 696 118 638 0 580 118 522 0 464 118 406 0 348 118 290 0 232 118 174 0 116 118 58 0 0 118 0 403 1856 403 1856 118 1798 0"/></g></g></svg>